<svg width="146" height="152" viewBox="0 0 146 152" fill="none" xmlns="http://www.w3.org/2000/svg">
<g filter="url(#filter0_d_97_5934)">
<path d="M5.01187 54.9613L138.286 54L142 144L4 142.729L5.01187 54.9613Z" fill="#EB5757"/>
<path d="M5 55L72.5218 0L138 54.0277" fill="#EB5757"/>
<g opacity="0.3">
<path d="M5 55L72.5218 0L138 54.0277" fill="#EB5757"/>
</g>
<path d="M4.0019 141.998C3.83667 141.844 14.4474 130.302 27.6999 116.221C40.9564 102.136 51.8329 90.8469 51.9981 91.0016C52.1633 91.1563 41.5546 102.696 28.2981 116.781C15.0466 130.861 4.16813 142.153 4.0019 141.998Z" fill="black"/>
<path d="M141.998 143.999C141.827 144.148 131.391 132.853 118.691 118.772C105.987 104.687 95.8312 93.151 96.0021 93.0015C96.173 92.8519 106.607 104.145 119.311 118.23C132.011 132.311 142.17 143.849 141.998 143.999Z" fill="black"/>
<g opacity="0.5">
<path d="M138 54L71.2143 107L5 54.9595" fill="#EB5757"/>
</g>
<path d="M12.1942 59.4046L12 20.8404L128.726 18L130 60.1921L71.8262 106L12.1942 59.4046Z" fill="#EDEDED"/>
<path d="M73.057 92C71.9556 92 70.8463 91.937 69.7349 91.8111C62.0385 90.9396 55.1426 87.1228 50.3184 81.0633C45.4933 75.0057 43.3166 67.43 44.1881 59.7344C45.988 43.8465 60.3785 32.3821 76.2651 34.187C83.9605 35.0585 90.8564 38.8754 95.6816 44.9339C100.507 50.9924 102.683 58.5671 101.812 66.2637C100.94 73.9593 97.1237 80.8554 91.0643 85.6806C85.8804 89.8093 79.5871 92 73.057 92ZM72.98 35.0006C58.9413 35.0006 46.7995 45.5735 45.1815 59.8474C44.34 67.2781 46.4417 74.5919 51.101 80.4426C55.7602 86.2913 62.4173 89.9772 69.8479 90.8187C77.2765 91.6652 84.5921 89.5584 90.4427 84.9001C96.2912 80.2407 99.977 73.5835 100.819 66.1518C101.661 58.721 99.5593 51.4072 94.9 45.5575C90.2418 39.7079 83.5837 36.023 76.1521 35.1805C75.0878 35.0595 74.0274 35.0006 72.98 35.0006Z" fill="#29B627"/>
<path d="M53 67.3472L57.8263 61.4436L69.1185 69.5847L87.4679 48L93 52.8554L69.4012 80L53 67.3472Z" fill="#29B627"/>
</g>
<defs>
<filter id="filter0_d_97_5934" x="0" y="0" width="146" height="152" filterUnits="userSpaceOnUse" color-interpolation-filters="sRGB">
<feFlood flood-opacity="0" result="BackgroundImageFix"/>
<feColorMatrix in="SourceAlpha" type="matrix" values="0 0 0 0 0 0 0 0 0 0 0 0 0 0 0 0 0 0 127 0" result="hardAlpha"/>
<feOffset dy="4"/>
<feGaussianBlur stdDeviation="2"/>
<feComposite in2="hardAlpha" operator="out"/>
<feColorMatrix type="matrix" values="0 0 0 0 0 0 0 0 0 0 0 0 0 0 0 0 0 0 0.25 0"/>
<feBlend mode="normal" in2="BackgroundImageFix" result="effect1_dropShadow_97_5934"/>
<feBlend mode="normal" in="SourceGraphic" in2="effect1_dropShadow_97_5934" result="shape"/>
</filter>
</defs>
</svg>
